<svg width="265" height="149" viewBox="0 0 265 149" fill="none" xmlns="http://www.w3.org/2000/svg">
<path d="M57.2201 59.2131L56.8222 72.6803C56.8222 80.0805 57.0344 86.7188 57.4589 92.5954C57.8833 98.4176 58.8383 104.757 60.3239 111.613C59.1567 112.592 57.2997 113.082 54.7531 113.082C49.8189 113.082 47.3519 110.878 47.3519 106.471C47.3519 102.825 47.511 97.2477 47.8293 89.7387C48.2007 82.2298 48.3864 76.3532 48.3864 72.109C45.5214 76.3532 42.4973 81.604 39.314 87.8615C36.1837 94.0646 34.6186 97.8735 34.6186 99.2882C34.6186 100.703 34.7512 101.791 35.0165 102.553C33.8493 103.315 32.2841 103.696 30.3211 103.696C28.4111 103.696 26.7929 103.152 25.4665 102.063C24.1932 100.975 23.1056 99.4786 22.2036 97.5742C21.3548 95.6697 19.8162 91.9425 17.5878 86.3923C15.4126 80.7878 13.423 75.9723 11.6191 71.9457C10.2397 80.7062 9.54995 88.46 9.54995 95.2072C9.54995 101.954 9.76217 107.423 10.1866 111.613C8.48885 112.266 6.79108 112.592 5.09331 112.592C1.69777 112.592 0 110.851 0 107.368C0 104.702 0.583608 99.397 1.75082 91.4527C2.9711 83.4541 3.58123 76.7069 3.58123 71.2112C3.58123 65.7155 3.28943 60.5735 2.70582 55.7851C5.57081 55.0234 7.79913 54.6425 9.39079 54.6425C12.3088 54.6425 14.2719 55.7035 15.2799 57.8256C16.8716 61.2536 19.206 66.7221 22.2832 74.2311C25.4135 81.6856 27.9601 87.4262 29.9232 91.4527C30.4537 90.3101 31.674 87.8615 33.584 84.107C35.547 80.2981 37.1652 77.0605 38.4386 74.3943C39.7649 71.6737 41.0913 68.4633 42.4177 64.7632C43.7971 61.0088 44.6726 57.744 45.0439 54.9689C46.9539 54.4248 48.8109 54.1527 50.6148 54.1527C52.4717 54.1527 54.0368 54.5608 55.3101 55.377C56.5835 56.1932 57.2201 57.4719 57.2201 59.2131ZM104.358 74.1495C102.925 80.4069 102.209 86.6916 102.209 93.0035C102.209 99.261 102.899 105.464 104.278 111.613C102.368 112.266 100.405 112.592 98.389 112.592C96.3729 112.592 94.9669 111.994 94.1711 110.797C93.3752 109.545 92.9773 107.777 92.9773 105.491C92.9773 103.152 93.3222 99.9684 94.0119 95.9418C90.245 104.213 86.6107 109.436 83.109 111.613C81.5172 112.592 79.8725 113.082 78.1747 113.082C74.1425 113.082 71.0123 111.558 68.784 108.511C66.5556 105.41 65.4415 101.574 65.4415 97.0029C65.4415 90.038 67.3249 83.9438 71.0919 78.7201C74.8588 73.4421 79.7399 70.8031 85.7353 70.8031C91.7836 70.8031 97.9911 71.9185 104.358 74.1495ZM93.9323 79.0466C91.1204 78.176 88.7329 77.7407 86.7699 77.7407C82.7907 77.7407 79.8195 78.6385 77.8564 80.4341C76.0525 85.0048 75.1506 89.6571 75.1506 94.391C75.1506 96.894 75.522 99.4242 76.2647 101.982C77.0606 104.539 78.2543 105.818 79.846 105.818C81.7029 105.818 84.0906 103.015 87.0086 97.4109C89.9267 91.8064 92.2346 85.685 93.9323 79.0466ZM114.458 59.2947C116.156 58.4242 117.88 57.9888 119.631 57.9888C121.382 57.9888 122.788 58.5602 123.849 59.7029C124.963 60.8455 125.52 62.5323 125.52 64.7632C125.52 66.9942 125.387 69.5244 125.122 72.3538C129.101 72.3538 132.895 71.7825 136.503 70.6398C137.139 71.7281 137.458 73.0068 137.458 74.4759C137.458 75.8907 136.821 77.0605 135.548 77.9856C134.327 78.8562 133.081 79.2915 131.807 79.2915C130.534 79.2915 129.101 79.1282 127.51 78.8018C125.918 78.4753 124.883 78.2848 124.406 78.2304C124.353 78.7201 124.194 79.6996 123.928 81.1687C123.716 82.6379 123.531 83.9166 123.371 85.0048C122.947 87.9975 122.735 91.2079 122.735 94.6359C122.735 102.09 125.096 105.818 129.818 105.818C131.568 105.818 133.585 105.192 135.866 103.94C136.556 104.974 136.9 106.307 136.9 107.94C136.9 109.572 136.025 110.851 134.274 111.776C132.576 112.647 130.534 113.082 128.146 113.082C118.809 113.082 114.14 107.641 114.14 96.758C114.14 95.18 114.352 92.3233 114.776 88.188C115.254 84.0526 115.493 80.7062 115.493 78.1488C112.946 78.312 110.903 78.7746 109.365 79.5363C108.728 78.5569 108.41 77.4414 108.41 76.1899C108.41 74.884 108.861 73.823 109.763 73.0068C110.665 72.1362 111.779 71.7009 113.105 71.7009C114.432 71.7009 115.307 71.7281 115.731 71.7825C115.784 71.3472 115.811 70.7759 115.811 70.0685C115.811 65.9875 115.36 62.3963 114.458 59.2947ZM158.589 113.572C152.912 113.572 148.562 112.021 145.538 108.919C142.514 105.818 141.001 101.356 141.001 95.5337C141.001 88.46 142.938 82.5018 146.811 77.6591C150.684 72.7619 155.83 70.3134 162.25 70.3134C165.911 70.3134 168.882 71.0751 171.163 72.5987C173.445 74.0678 174.585 76.2716 174.585 79.2099C174.585 81.1143 173.843 82.8283 172.357 84.3519C170.872 85.821 169.2 86.5556 167.343 86.5556C166.919 86.5556 166.388 86.5012 165.752 86.3923C165.911 85.685 165.991 85.0592 165.991 84.5151C165.991 82.5562 165.487 80.8967 164.478 79.5363C163.47 78.176 161.799 77.4958 159.465 77.4958C157.13 77.4958 154.955 78.4753 152.939 80.4341C151.506 84.243 150.79 89.0042 150.79 94.7175C150.79 102.499 153.655 106.389 159.385 106.389C162.462 106.389 164.744 105.382 166.229 103.369C167.768 101.301 168.537 98.9889 168.537 96.4315C170.341 96.4315 171.906 96.894 173.233 97.819C174.559 98.7441 175.222 100.023 175.222 101.655C175.222 105.192 173.445 108.076 169.89 110.307C166.388 112.483 162.622 113.572 158.589 113.572ZM219 79.618L218.204 97.5742C218.204 102.363 218.974 107.205 220.512 112.102C218.868 112.755 217.196 113.082 215.499 113.082C210.883 113.082 208.575 110.579 208.575 105.573C208.575 101.873 208.893 97.5198 209.53 92.5138C210.167 87.5078 210.485 84.4335 210.485 83.2908C210.485 80.4614 209.238 79.0466 206.744 79.0466C204.092 79.0466 201.147 81.604 197.911 86.7188C194.674 91.7792 192.817 96.0234 192.34 99.4514C192.446 101.029 192.977 105.083 193.932 111.613C192.287 112.266 190.483 112.592 188.52 112.592C184.435 112.592 182.392 110.552 182.392 106.471C182.392 104.512 182.684 100.676 183.268 94.9624C183.851 89.1946 184.143 84.5695 184.143 81.0871C184.143 69.4972 183.506 59.9205 182.233 52.3571C183.931 51.7042 185.682 51.3777 187.485 51.3777C189.289 51.3777 190.775 52.0034 191.942 53.2549C193.162 54.452 193.772 56.1116 193.772 58.2337C193.772 60.3558 193.481 64.736 192.897 71.3744C192.366 78.0128 192.101 83.182 192.101 86.8821C193.958 82.8555 196.664 79.1826 200.219 75.8635C203.826 72.4899 207.408 70.8031 210.962 70.8031C216.321 70.8031 219 73.7414 219 79.618ZM265 74.1495C263.568 80.4069 262.851 86.6916 262.851 93.0035C262.851 99.261 263.541 105.464 264.92 111.613C263.01 112.266 261.047 112.592 259.031 112.592C257.015 112.592 255.609 111.994 254.813 110.797C254.018 109.545 253.62 107.777 253.62 105.491C253.62 103.152 253.964 99.9684 254.654 95.9418C250.887 104.213 247.253 109.436 243.751 111.613C242.16 112.592 240.515 113.082 238.817 113.082C234.785 113.082 231.655 111.558 229.426 108.511C227.198 105.41 226.084 101.574 226.084 97.0029C226.084 90.038 227.967 83.9438 231.734 78.7201C235.501 73.4421 240.382 70.8031 246.378 70.8031C252.426 70.8031 258.633 71.9185 265 74.1495ZM254.575 79.0466C251.763 78.176 249.375 77.7407 247.412 77.7407C243.433 77.7407 240.462 78.6385 238.499 80.4341C236.695 85.0048 235.793 89.6571 235.793 94.391C235.793 96.894 236.164 99.4242 236.907 101.982C237.703 104.539 238.897 105.818 240.488 105.818C242.345 105.818 244.733 103.015 247.651 97.4109C250.569 91.8064 252.877 85.685 254.575 79.0466Z" fill="url(#paint0_linear_21_3307)" fill-opacity="0.75"/>
<path fill-rule="evenodd" clip-rule="evenodd" d="M94.5944 60.0473C94.5112 60.0759 94.4208 60.0791 94.3357 60.0565C94.2506 60.0339 94.1749 59.9865 94.119 59.921C88.864 53.263 87.5437 41.8167 87.2224 37.4201C87.1564 36.5736 86.1617 36.0977 85.3651 36.5231C69.138 45.2447 54.0815 65.8758 54.0815 85.7952C54.0815 120.016 78.9218 148.724 121.684 148.724C161.747 148.724 189.286 119.136 189.286 85.7994C189.286 42.1788 156.708 13.1967 127.691 0.095415C127.521 0.0188115 127.333 -0.0125774 127.147 0.00455558C126.96 0.0216885 126.781 0.086709 126.63 0.192766C126.479 0.298823 126.36 0.441989 126.286 0.60718C126.213 0.77237 126.187 0.953469 126.212 1.13139C129.949 24.6388 124.786 50.2056 94.5944 60.0473Z" fill="url(#paint1_linear_21_3307)" fill-opacity="0.3"/>
<defs>
<linearGradient id="paint0_linear_21_3307" x1="-0.267357" y1="82.8351" x2="265.009" y2="82.8351" gradientUnits="userSpaceOnUse">
<stop stop-color="#F24E1E"/>
<stop offset="1" stop-color="#DD2476"/>
</linearGradient>
<linearGradient id="paint1_linear_21_3307" x1="84.8097" y1="148.724" x2="158.557" y2="148.724" gradientUnits="userSpaceOnUse">
<stop stop-color="#F24E1E"/>
<stop offset="1" stop-color="#DD2476"/>
</linearGradient>
</defs>
</svg>
