<svg width="73" height="63" viewBox="0 0 73 63" fill="none" xmlns="http://www.w3.org/2000/svg">
<path fill-rule="evenodd" clip-rule="evenodd" d="M24.3716 8.93234V0.0751953C16.3445 2.07006 10.3446 6.57838 6.37157 13.6003C2.39858 20.6222 0.412109 30.1575 0.412109 42.2065V62.0752H27.4121V35.5038H15.8581V32.7509C15.8581 26.2875 16.5675 21.081 17.9864 17.1312C19.4054 13.1814 21.5337 10.4484 24.3716 8.93234ZM69.3716 8.93234V0.0751953C61.3445 2.07006 55.3446 6.57838 51.3716 13.6003C47.3986 20.6222 45.4121 30.1575 45.4121 42.2065V62.0752H72.4121V35.5038H60.8581V32.7509C60.8581 26.2875 61.5675 21.081 62.9864 17.1312C64.4054 13.1814 66.5337 10.4484 69.3716 8.93234Z" fill="#DD2476"/>
</svg>
