<svg width="73" height="63" viewBox="0 0 73 63" fill="none" xmlns="http://www.w3.org/2000/svg">
<path fill-rule="evenodd" clip-rule="evenodd" d="M48.4527 53.2181V62.0752C56.4797 60.0803 62.4797 55.572 66.4527 48.5501C70.4256 41.5282 72.4121 31.9929 72.4121 19.9439L72.4121 0.0751953H45.4121L45.4121 26.6466H56.9662V29.3995C56.9662 35.8629 56.2567 41.0694 54.8378 45.0192C53.4189 48.969 51.2905 51.702 48.4527 53.2181ZM3.45265 53.2181V62.0752C11.4797 60.0803 17.4797 55.572 21.4527 48.5501C25.4256 41.5282 27.4121 31.9929 27.4121 19.9439V0.0751953H0.412109L0.412109 26.6466H11.9662V29.3995C11.9662 35.8629 11.2567 41.0694 9.83778 45.0192C8.41886 48.969 6.2905 51.702 3.45265 53.2181Z" fill="#DD2476"/>
</svg>
