<svg width="30" height="30" viewBox="0 0 16 17" fill="none" xmlns="http://www.w3.org/2000/svg">
<mask id="mask0_21_3286" style="mask-type:alpha" maskUnits="userSpaceOnUse" x="0" y="0" width="16" height="17">
<path d="M0 0.544969V16.853H15.982V0.542969H0V0.544969Z" fill="white"/>
</mask>
<g mask="url(#mask0_21_3286)">
<path fill-rule="evenodd" clip-rule="evenodd" d="M5.48991 0.990938C3.48396 1.69024 1.82768 3.14074 0.869913 5.03694C0.542005 5.68553 0.303181 6.37543 0.159913 7.08794C-0.198708 8.87518 0.0497662 10.731 0.865913 12.3609C1.39947 13.4173 2.15465 14.3461 3.07991 15.0839C3.95427 15.7805 4.96298 16.2891 6.04291 16.5779C7.40191 16.9419 8.84791 16.9339 10.2159 16.6219C11.4603 16.3408 12.6108 15.7428 13.5559 14.8859C14.5429 13.9789 15.2479 12.7859 15.6209 11.5019C16.0289 10.1039 16.0809 8.60894 15.8269 7.17194H8.15591V10.3529H12.5999C12.5112 10.861 12.3211 11.346 12.0409 11.7789C11.7606 12.2119 11.3961 12.5839 10.9689 12.8729C10.4259 13.2323 9.81385 13.4741 9.17191 13.5829C8.53191 13.6929 7.86491 13.7059 7.22491 13.5789C6.57257 13.4452 5.95496 13.1779 5.41091 12.7939C4.53973 12.1787 3.88607 11.3031 3.54391 10.2929C3.19559 9.26395 3.19559 8.14893 3.54391 7.11994C3.78917 6.39699 4.19381 5.73841 4.72791 5.19294C5.38972 4.51216 6.23728 4.04126 7.16491 3.83894C7.95844 3.67086 8.78139 3.70387 9.55891 3.93494C10.2177 4.13725 10.8196 4.49181 11.3159 4.96994L12.8159 3.46994C13.0789 3.20294 13.3549 2.94494 13.6089 2.66794C12.8482 1.95984 11.956 1.40776 10.9829 1.04294C9.21221 0.397253 7.27353 0.378897 5.49091 0.990938" fill="white"/>
</g>
<mask id="mask1_21_3286" style="mask-type:alpha" maskUnits="userSpaceOnUse" x="0" y="0" width="14" height="8">
<path d="M13.6091 0.543945H0.870117V7.11395H13.6101V0.543945H13.6091Z" fill="white"/>
</mask>
<g mask="url(#mask1_21_3286)">
<path fill-rule="evenodd" clip-rule="evenodd" d="M5.49112 0.991002C7.27363 0.379855 9.21156 0.396792 10.9831 1.039C11.9561 1.399 12.8461 1.959 13.6091 2.665C13.3551 2.941 13.0791 3.2 12.8161 3.467L11.3161 4.967C10.8187 4.49036 10.2172 4.13602 9.55912 3.932C8.78204 3.69843 7.95854 3.66506 7.16512 3.835C6.24512 4.033 5.39012 4.515 4.72812 5.19C4.1935 5.73391 3.78874 6.39164 3.54412 7.114C2.65412 6.423 1.76412 5.734 0.870117 5.041C1.82648 3.14283 3.48308 1.69062 5.49012 0.991002" fill="#EA4335"/>
</g>
<path fill-rule="evenodd" clip-rule="evenodd" d="M0.164793 7.08298C0.308793 6.37298 0.544793 5.68098 0.874793 5.03198C1.76479 5.72398 2.65479 6.41198 3.54879 7.10498C3.198 8.13391 3.198 9.25006 3.54879 10.279C2.65879 10.972 1.76879 11.664 0.878793 12.352C0.0556703 10.7257 -0.195844 8.86966 0.164793 7.08298Z" fill="#FBBC05"/>
<path fill-rule="evenodd" clip-rule="evenodd" d="M8.15588 7.16699H15.8269C16.0877 8.60725 16.0173 10.088 15.6209 11.497C15.2479 12.782 14.5429 13.974 13.5559 14.882L10.9659 12.87C11.393 12.5808 11.7574 12.2085 12.0374 11.7754C12.3175 11.3422 12.5074 10.8571 12.5959 10.349H8.15088C8.15588 9.28899 8.15588 8.22699 8.15588 7.16699Z" fill="#4285F4"/>
<path fill-rule="evenodd" clip-rule="evenodd" d="M0.870117 12.357C1.76012 11.668 2.65012 10.976 3.54012 10.283C3.88344 11.293 4.53681 12.169 5.40712 12.786C5.95188 13.1693 6.56969 13.4365 7.22212 13.571C7.86212 13.702 8.52412 13.685 9.16812 13.575C9.81041 13.4663 10.4229 13.2244 10.9661 12.865L13.5561 14.877C12.6231 15.741 11.4521 16.328 10.2161 16.613C8.84812 16.924 7.40212 16.933 6.04312 16.569C4.96249 16.2819 3.95342 15.7732 3.08012 15.075C2.15647 14.3385 1.40264 13.4114 0.870117 12.357Z" fill="#34A853"/>
</svg>
